<?xml version="1.0" standalone="no"?><!DOCTYPE svg PUBLIC "-//W3C//DTD SVG 1.1//EN" "http://www.w3.org/Graphics/SVG/1.1/DTD/svg11.dtd"><svg t="1646964699667" class="icon" viewBox="0 0 1024 1024" version="1.1" xmlns="http://www.w3.org/2000/svg" p-id="4170" xmlns:xlink="http://www.w3.org/1999/xlink" width="200" height="200"><defs><style type="text/css"></style></defs><path d="M276.48 184.32v112.64h348.16V174.08h174.08v399.36h20.48V153.6h-194.56V102.4h-102.4v-40.96H378.88v40.96H276.48v51.2H81.92l1.536 788.48H819.2v-61.44h-20.48v40.96H102.4V174.08h194.56V122.88h102.4v-40.96h102.4v40.96h102.4v153.6H296.96V184.32z" fill="" p-id="4171"></path><path d="M225.28 481.28h450.56v20.48H225.28zM225.28 634.88h450.56v20.48H225.28zM778.24 711.68l-15.36 14.848 54.272 54.784 108.544-108.032-14.336-14.336-92.16 92.16z" fill="" p-id="4172"></path><path d="M921.6 726.528c0 61.44-45.568 104.96-102.4 104.96s-103.936-46.592-103.936-103.936 46.592-103.936 103.936-103.936c27.648 0 52.736 10.752 71.68 28.672 2.048-2.048 9.216-10.24 11.776-12.8-23.04-20.992-51.712-33.28-83.456-33.28-67.072 0-121.344 54.272-121.344 121.344s54.272 121.344 121.344 121.344 121.344-54.272 121.344-121.344v-0.512c-3.584 0-18.944-1.024-18.944-0.512z" fill="" p-id="4173"></path></svg>