<?xml version="1.0" standalone="no"?><!DOCTYPE svg PUBLIC "-//W3C//DTD SVG 1.1//EN" "http://www.w3.org/Graphics/SVG/1.1/DTD/svg11.dtd"><svg t="1646964656005" class="icon" viewBox="0 0 1024 1024" version="1.1" xmlns="http://www.w3.org/2000/svg" p-id="3152" xmlns:xlink="http://www.w3.org/1999/xlink" width="200" height="200"><defs><style type="text/css"></style></defs><path d="M34.112 789.36h139.856v68.224H34.112z m403.2 0h145.312v68.224h-145.312z m415.472 68.224l-6.144-68.224a99.6 99.6 0 0 0 108.48-102.4v-196.48l-123.488-246.896h-183.52V175.36h225.872l149.408 298.816v212.8a164.416 164.416 0 0 1-170.56 170.56" p-id="3153"></path><path d="M259.12 73.04v69.472h312.608V559.36h382.096v-69.472H641.216V73.04z" p-id="3154"></path><path d="M136.448 277.696h272.896v68.224H136.448z m-68.224 136.448h341.12v68.224H68.224zM0 550.592h409.344v68.224H0z m307.008 409.328a136.448 136.448 0 1 1 136.448-136.448 136.448 136.448 0 0 1-136.448 136.448m0-204.672a68.224 68.224 0 1 0 68.224 68.224 68.224 68.224 0 0 0-68.224-68.224m409.328 204.672a136.448 136.448 0 1 1 136.448-136.448 136.448 136.448 0 0 1-136.448 136.448m0-204.672a68.224 68.224 0 1 0 68.224 68.224 68.224 68.224 0 0 0-68.224-68.224" p-id="3155"></path></svg>